<?xml version="1.0" encoding="UTF-8"?>
<!DOCTYPE svg PUBLIC "-//W3C//DTD SVG 1.1//EN" "http://www.w3.org/Graphics/SVG/1.1/DTD/svg11.dtd">
<svg xmlns="http://www.w3.org/2000/svg" version="1.1" width="150px" height="150px" style="shape-rendering:geometricPrecision; text-rendering:geometricPrecision; image-rendering:optimizeQuality; fill-rule:evenodd; clip-rule:evenodd" xmlns:xlink="http://www.w3.org/1999/xlink">
<g><path style="opacity:0.963" fill="#09284d" d="M 63.5,-0.5 C 65.8333,-0.5 68.1667,-0.5 70.5,-0.5C 70.5,5.16667 70.5,10.8333 70.5,16.5C 43.3499,20.1445 25.8499,35.1445 18,61.5C 17.5026,64.146 17.3359,66.8127 17.5,69.5C 11.5,69.5 5.5,69.5 -0.5,69.5C -0.5,67.5 -0.5,65.5 -0.5,63.5C 7.16667,28.5 28.5,7.16667 63.5,-0.5 Z"/></g>
<g><path style="opacity:1" fill="#fafaf9" d="M 70.5,-0.5 C 73.5,-0.5 76.5,-0.5 79.5,-0.5C 79.5,5.16667 79.5,10.8333 79.5,16.5C 110.256,21.256 127.923,38.9227 132.5,69.5C 138.167,69.5 143.833,69.5 149.5,69.5C 149.5,72.8333 149.5,76.1667 149.5,79.5C 143.833,79.5 138.167,79.5 132.5,79.5C 129.572,104.501 116.238,121.334 92.5,130C 88.23,131.075 83.8967,131.575 79.5,131.5C 79.5,137.5 79.5,143.5 79.5,149.5C 76.5,149.5 73.5,149.5 70.5,149.5C 70.5,143.5 70.5,137.5 70.5,131.5C 68.8333,131.5 67.1667,131.5 65.5,131.5C 37.3819,125.381 21.3819,108.048 17.5,79.5C 11.5,79.5 5.5,79.5 -0.5,79.5C -0.5,76.1667 -0.5,72.8333 -0.5,69.5C 5.5,69.5 11.5,69.5 17.5,69.5C 17.3359,66.8127 17.5026,64.146 18,61.5C 25.8499,35.1445 43.3499,20.1445 70.5,16.5C 70.5,10.8333 70.5,5.16667 70.5,-0.5 Z"/></g>
<g><path style="opacity:0.961" fill="#09294d" d="M 79.5,-0.5 C 81.5,-0.5 83.5,-0.5 85.5,-0.5C 120.5,7.16667 141.833,28.5 149.5,63.5C 149.5,65.5 149.5,67.5 149.5,69.5C 143.833,69.5 138.167,69.5 132.5,69.5C 127.923,38.9227 110.256,21.256 79.5,16.5C 79.5,10.8333 79.5,5.16667 79.5,-0.5 Z"/></g>
<g><path style="opacity:1" fill="#ffa008" d="M 66.5,27.5 C 95.705,26.0163 114.205,39.3496 122,67.5C 123.291,93.5208 111.791,111.021 87.5,120C 57.4219,124.714 37.9219,112.547 29,83.5C 26.5727,54.7719 39.0727,36.1053 66.5,27.5 Z"/></g>
<g><path style="opacity:0.963" fill="#08284d" d="M -0.5,79.5 C 5.5,79.5 11.5,79.5 17.5,79.5C 21.3819,108.048 37.3819,125.381 65.5,131.5C 66.5676,132.434 67.901,132.768 69.5,132.5C 69.5,138.167 69.5,143.833 69.5,149.5C 67.5,149.5 65.5,149.5 63.5,149.5C 28.5,141.833 7.16667,120.5 -0.5,85.5C -0.5,83.5 -0.5,81.5 -0.5,79.5 Z"/></g>
<g><path style="opacity:0.961" fill="#09294e" d="M 149.5,79.5 C 149.5,81.5 149.5,83.5 149.5,85.5C 141.833,120.5 120.5,141.833 85.5,149.5C 83.5,149.5 81.5,149.5 79.5,149.5C 79.5,143.5 79.5,137.5 79.5,131.5C 83.8967,131.575 88.23,131.075 92.5,130C 116.238,121.334 129.572,104.501 132.5,79.5C 138.167,79.5 143.833,79.5 149.5,79.5 Z"/></g>
<g><path style="opacity:0.979" fill="#51637e" d="M 65.5,131.5 C 67.1667,131.5 68.8333,131.5 70.5,131.5C 70.5,137.5 70.5,143.5 70.5,149.5C 70.1667,149.5 69.8333,149.5 69.5,149.5C 69.5,143.833 69.5,138.167 69.5,132.5C 67.901,132.768 66.5676,132.434 65.5,131.5 Z"/></g>
</svg>
