<?xml version="1.0" standalone="no"?>
<!DOCTYPE svg PUBLIC "-//W3C//DTD SVG 20010904//EN"
 "http://www.w3.org/TR/2001/REC-SVG-20010904/DTD/svg10.dtd">
<svg version="1.0" xmlns="http://www.w3.org/2000/svg"
 width="150.000000pt" height="150.000000pt" viewBox="0 0 150.000000 150.000000"
 preserveAspectRatio="xMidYMid meet">

<g transform="translate(0.000000,150.000000) scale(0.100000,-0.100000)"
fill="#000000" stroke="none">
<path d="M560 1471 c-265 -71 -468 -278 -534 -542 -9 -36 -16 -80 -16 -97 l0
-32 83 0 82 0 13 68 c42 218 235 410 455 452 l67 12 0 79 0 79 -42 -1 c-24 0
-72 -8 -108 -18z"/>
<path d="M800 1411 l0 -79 67 -12 c220 -42 413 -234 455 -452 l13 -68 77 0 78
0 0 32 c0 17 -7 61 -16 97 -55 221 -211 408 -417 501 -70 31 -178 60 -225 60
l-32 0 0 -79z"/>
<path d="M10 668 c0 -47 29 -155 60 -225 93 -206 280 -362 501 -417 36 -9 82
-16 102 -16 l37 0 0 79 0 79 -75 17 c-150 33 -283 124 -365 248 -40 61 -90
195 -90 243 0 24 -1 24 -85 24 l-85 0 0 -32z"/>
<path d="M1322 633 c-43 -229 -243 -417 -484 -458 l-38 -6 0 -79 0 -80 32 0
c17 0 61 7 97 16 221 55 408 211 501 417 31 70 60 178 60 225 l0 32 -78 0 -77
0 -13 -67z"/>
</g>
</svg>
